<svg width="320" height="221" viewBox="0 0 320 221" fill="none" xmlns="http://www.w3.org/2000/svg">
<path d="M360.464 20.7985C355.692 20.7985 351.18 21.923 347.174 23.9237C342.404 10.2797 329.529 0.5 314.388 0.5C297.001 0.5 282.602 13.3969 280.034 30.2325C278.439 29.9183 276.791 29.7537 275.105 29.7537C260.959 29.7537 249.5 41.3425 249.5 55.6269C249.5 68.4175 258.688 79.0469 270.766 81.13V81.5H271.266L275.105 81.5L360.464 81.5C377.057 81.5 390.5 67.9065 390.5 51.1493C390.5 34.392 377.057 20.7985 360.464 20.7985ZM302.04 182.187C299.102 182.187 296.321 182.861 293.84 184.066C290.778 175.57 282.715 169.5 273.243 169.5C262.346 169.5 253.314 177.533 251.616 188.05C250.667 187.875 249.69 187.784 248.691 187.784C239.744 187.784 232.5 195.112 232.5 204.142C232.5 212.172 238.23 218.857 245.791 220.238V220.5H246.291L248.691 220.5L302.04 220.5C312.516 220.5 321 211.918 321 201.343C321 190.768 312.516 182.187 302.04 182.187ZM40.4641 112.799C35.6917 112.799 31.1799 113.923 27.1736 115.924C22.4038 102.28 9.52895 92.5 -5.61183 92.5C-22.999 92.5 -37.398 105.397 -39.966 122.232C-41.5608 121.918 -43.2086 121.754 -44.8945 121.754C-59.041 121.754 -70.5 133.343 -70.5 147.627C-70.5 160.417 -61.3122 171.047 -49.2342 173.13V173.5H-48.7342L-44.8945 173.5H40.4641C57.0575 173.5 70.5 159.907 70.5 143.149C70.5 126.392 57.0575 112.799 40.4641 112.799Z" fill="#2D4379" stroke="#0C2461"/>
</svg>
